<?xml version="1.0" encoding="UTF-8" standalone="no"?>
<!DOCTYPE svg PUBLIC "-//W3C//DTD SVG 1.1//EN" "http://www.w3.org/Graphics/SVG/1.1/DTD/svg11.dtd">
<svg width="100%" height="100%" viewBox="0 0 614 146" version="1.1" xmlns="http://www.w3.org/2000/svg" xmlns:xlink="http://www.w3.org/1999/xlink" xml:space="preserve" xmlns:serif="http://www.serif.com/" style="fill-rule:evenodd;clip-rule:evenodd;stroke-linejoin:round;stroke-miterlimit:2;">
    <g transform="matrix(3.125,0,0,3.125,0,0)">
        <g transform="matrix(0.642527,0,0,0.433628,-17.6039,-285.306)">
            <g transform="matrix(1.55635,0,0,2.30612,-369.189,-2303.79)">
                <text x="307.935px" y="1318.17px" style="font-family:'Aleo-Bold', 'Aleo';font-weight:700;font-size:28px;fill:rgb(249,245,234);stroke:rgb(249,245,234);stroke-width:0.2px;">V</text>
                <text x="326.891px" y="1318.17px" style="font-family:'Aleo-Bold', 'Aleo';font-weight:700;font-size:19.867px;fill:rgb(249,245,234);stroke:rgb(249,245,234);stroke-width:0.2px;">O</text>
                <text x="341.632px" y="1318.17px" style="font-family:'Aleo-Bold', 'Aleo';font-weight:700;font-size:19.867px;fill:rgb(249,245,234);stroke:rgb(249,245,234);stroke-width:0.2px;">E</text>
                <text x="353.532px" y="1318.17px" style="font-family:'Aleo-Bold', 'Aleo';font-weight:700;font-size:19.867px;fill:rgb(249,245,234);stroke:rgb(249,245,234);stroke-width:0.2px;">T</text>
                <text x="365.711px" y="1318.17px" style="font-family:'Aleo-Bold', 'Aleo';font-weight:700;font-size:28px;fill:rgb(249,245,234);stroke:rgb(249,245,234);stroke-width:0.2px;">D</text>
                <text x="386.347px" y="1318.17px" style="font-family:'Aleo-Bold', 'Aleo';font-weight:700;font-size:19.867px;fill:rgb(249,245,234);stroke:rgb(249,245,234);stroke-width:0.2px;">E</text>
                <text x="398.248px" y="1318.17px" style="font-family:'Aleo-Bold', 'Aleo';font-weight:700;font-size:19.867px;fill:rgb(249,245,234);stroke:rgb(249,245,234);stroke-width:0.2px;">L</text>
                <text x="408.181px" y="1318.17px" style="font-family:'Aleo-Bold', 'Aleo';font-weight:700;font-size:19.867px;fill:rgb(249,245,234);stroke:rgb(249,245,234);stroke-width:0.2px;">U<tspan x="424.194px " y="1318.17px ">X</tspan></text>
                <text x="440.167px" y="1318.17px" style="font-family:'Aleo-Bold', 'Aleo';font-weight:700;font-size:19.867px;fill:rgb(249,245,234);stroke:rgb(249,245,234);stroke-width:0.2px;">E</text>
            </g>
            <g transform="matrix(1.55635,0,0,2.54685,24.2953,-2818.54)">
                <g transform="matrix(0.0354242,0.00460563,-0.00460563,0.0354242,4.59399,1358.29)">
                    <path d="M810,632C810,632 783.667,657.833 774,668C766.351,676.045 758.934,684.332 752,693C724.229,727.713 684.52,775.951 703,824C713.876,852.276 751.667,875.167 763,887C765.609,889.724 768.393,892.275 771,895C774.667,898.833 785,910 785,910C785,910 786.098,899.963 787,895C788,889.5 790.079,883.077 791,877C792.667,866 796,844.5 797,829C797.966,814.031 796.667,798.996 797,784C797.007,783.667 797.945,783.671 798,784C798.329,785.973 797.819,788.008 798,790C798.333,793.667 799.353,800.664 800,806C800.667,811.5 801.892,817.295 802,823C802.167,831.833 801.832,847.024 801,859C800.167,871 798.167,886 797,895C796.218,901.032 793.833,910.5 794,913C794.111,914.663 796.684,911.023 798,910C799.5,908.833 801.633,907.299 803,906C805.075,904.028 807.999,900.91 811.766,897.459C812.773,896.537 813.77,895.591 814.716,894.636C815.916,893.427 817.037,892.204 818,891C822.344,885.57 830.439,877.259 837.085,867.988C842.678,860.184 846.953,851.408 850,846C854.451,838.1 856.5,827.667 858,820C859.282,813.449 859.257,806.67 859,800C858.667,791.333 858.711,778.365 856,768C853.167,757.167 846.586,746.034 842,735C836.667,722.167 828.667,704.667 824,691C819.767,678.605 816.333,662.833 814,653C812.355,646.067 810,632 810,632Z" style="fill:rgb(255,133,10);"/>
                </g>
                <g transform="matrix(0.0354242,0.00460563,-0.00460563,0.0354242,4.62389,1358.25)">
                    <path d="M1251,825C1251,825 1216.5,826 1205,826C1197.33,826 1189.5,825.5 1182,825C1174.65,824.51 1166.67,823.667 1160,823C1153.99,822.399 1147.95,822.041 1142,821C1135.33,819.833 1127.36,817.53 1120,816C1107.17,813.333 1079,808 1065,805C1055.28,802.916 1044.5,799.667 1036,798C1028.74,796.576 1021.39,795.296 1014,795C1005.67,794.667 995.286,795.005 986,796C976.667,797 967.122,798.415 958,801C948,803.833 934.833,809.333 926,813C918.839,815.972 911.592,818.919 905,823C898,827.333 890.5,833.333 884,839C877.604,844.576 871.919,850.921 866,857C859.833,863.333 852.833,870.095 847,877C841.247,883.81 835.5,892.095 831,898.429C827.16,903.833 823.478,909.356 820,915C815.833,921.762 804.333,936.167 806,939C807.667,941.833 822.167,934.5 830,932C837.733,929.532 845.349,926.71 853,924C861,921.167 869.667,917.667 878,915C886.242,912.363 895,910 903,908C910.611,906.097 918.3,904.504 926,903C934.167,901.405 943.268,899.52 952,898.429C962.667,897.095 980.667,895.738 990,895C995.991,894.526 1002.83,894.167 1008,894C1012.33,893.86 1019.83,893.833 1021,894C1022.17,894.167 1017,894.642 1015,895C1008.5,896.167 992.947,898.725 982,901C969.167,903.667 951,907.833 938,911C926.609,913.775 915.221,916.604 904,920C891.333,923.833 872.333,930.333 862,934C855.233,936.401 848.699,939.415 842,942C832.5,945.667 817.091,950.737 805,956C790.833,962.167 771.667,971.667 757,979C743.531,985.735 730.095,992.563 717,1000C703.5,1007.67 687.667,1017.67 676,1025C666.216,1031.15 656.545,1037.49 647,1044C636.5,1051.17 624,1060 613,1068C602.217,1075.84 591.5,1083.83 581,1092C570.521,1100.15 560.134,1108.42 550,1117C539.167,1126.17 527.442,1137.12 516,1147C503.833,1157.5 486.833,1171.83 477,1180C470.432,1185.45 463.5,1190.83 457,1196C450.683,1201.02 444.333,1206.33 438,1211C431.822,1215.55 425,1220 419,1224C413.384,1227.74 407.748,1231.46 402,1235C395.5,1239 386.833,1244.17 380,1248C373.758,1251.5 367.431,1254.86 361,1258C353.833,1261.5 345.132,1265.63 337,1269C327.333,1273 311.667,1278.83 303,1282C297.06,1284.17 291.062,1286.2 285,1288C278.833,1289.83 272.399,1291.61 266,1293C258.333,1294.67 247.333,1297 239,1298C231.381,1298.91 223.673,1298.86 216,1299C207.167,1299.17 194.833,1299.67 186,1299C178.24,1298.41 169.5,1296.5 163,1295C157.555,1293.74 152.269,1291.86 147,1290C141.333,1288 133.833,1285.33 129,1283C125.086,1281.11 121.616,1278.41 118,1276C113.5,1273 106.833,1269 102,1265C97.279,1261.09 90.667,1252.67 89,1252C87.333,1251.33 91,1258 92,1261C93.167,1264.5 94.667,1269.33 96,1273C97.227,1276.37 98.334,1279.82 100,1283C101.833,1286.5 104.667,1290.67 107,1294C109.179,1297.11 111.5,1300.17 114,1303C116.495,1305.83 119.262,1308.41 122,1311C125.167,1314 128.979,1318.11 133,1321C137.167,1324 142.333,1326.67 147,1329C151.541,1331.27 156.21,1333.32 161,1335C167.167,1337.17 177,1340.17 184,1342C190.261,1343.64 198.167,1345.17 203,1346C206.301,1346.57 209.655,1346.82 213,1347C219.167,1347.33 233.333,1347.83 240,1348C244.332,1348.11 248.675,1348.26 253,1348C258.5,1347.67 266.667,1346.83 273,1346C279.031,1345.21 285.029,1344.16 291,1343C297,1341.83 303.028,1340.45 309,1339C315.167,1337.5 322.333,1335.67 328,1334C333.056,1332.51 338.167,1330.67 343,1329C347.685,1327.38 352.667,1325.67 357,1324C361.044,1322.44 365.034,1320.75 369,1319C373.167,1317.17 378,1314.83 382,1313C385.661,1311.32 389.667,1309.67 393,1308C396.07,1306.46 399.5,1304.33 402,1303C403.973,1301.95 406.027,1301.05 408,1300C410.5,1298.67 414.333,1296.5 417,1295C419.342,1293.68 421.707,1292.4 424,1291C427,1289.17 431.667,1286.17 435,1284C438.023,1282.04 441,1280 444,1278C447,1276 450.167,1274 453,1272C455.723,1270.08 458.333,1268 461,1266C463.667,1264 466.5,1262 469,1260C471.4,1258.08 473.833,1255.83 476,1254C477.987,1252.32 480.054,1250.73 482,1249C485,1246.33 490.094,1241.77 494,1238C498.667,1233.5 505.833,1226.33 510,1222C513.108,1218.77 515.936,1215.28 519,1212C523.833,1206.83 533.667,1196.17 539,1191C542.74,1187.38 547.333,1184.17 551,1181C554.394,1178.07 557.833,1174.83 561,1172C563.991,1169.32 567,1166.67 570,1164C573,1161.33 575.952,1158.61 579,1156C582.5,1153 587.013,1149.35 591,1146C595.167,1142.5 599.618,1138.61 604,1135C609.667,1130.33 618.5,1123.17 625,1118C630.95,1113.27 637.167,1108.5 643,1104C648.648,1099.64 655,1094.83 660,1091C664.339,1087.67 668.568,1084.2 673,1081C679,1076.67 689.167,1069.67 696,1065C701.955,1060.93 707.91,1056.86 714,1053C720.833,1048.67 729.333,1043.67 737,1039C744.667,1034.33 752.139,1029.33 760,1025C768.167,1020.5 778.833,1015.33 786,1012C791.557,1009.42 797.255,1007.13 803,1005C808.833,1002.83 815.667,1000.5 821,999C825.594,997.708 831.167,996.667 835,996C837.974,995.483 840.984,995.121 844,995C848.167,994.833 856,994.667 860,995C862.739,995.228 865.448,995.979 868,997C871.333,998.333 876.254,1000.56 880,1003C883.833,1005.5 887.667,1009.33 891,1012C893.968,1014.37 897.167,1016.83 900,1019C902.648,1021.02 905.316,1023.02 908,1025C911.167,1027.33 915.202,1030.52 919,1033C922.833,1035.5 926.96,1037.74 931,1040C935.167,1042.33 940,1045 944,1047C947.602,1048.8 951.241,1050.55 955,1052C959.333,1053.67 964.897,1055.68 970,1057C975.167,1058.33 981,1059.5 986,1060C990.644,1060.46 995.336,1060.16 1000,1060C1004.83,1059.83 1011,1059.5 1015,1059C1018.05,1058.62 1021.03,1057.78 1024,1057C1027.17,1056.17 1030.73,1055.19 1034,1054C1037.67,1052.67 1042.33,1050.67 1046,1049C1049.39,1047.46 1052.83,1045.67 1056,1044C1059.04,1042.4 1062.17,1040.67 1065,1039C1067.71,1037.41 1070.5,1035.67 1073,1034C1075.39,1032.41 1077.69,1030.7 1080,1029C1082.5,1027.17 1085.5,1025 1088,1023C1090.4,1021.08 1092.65,1018.98 1095,1017C1098.17,1014.33 1103.24,1010.6 1107,1007C1114.67,999.667 1132.67,981.667 1141,973C1146.56,967.213 1152.67,960.167 1157,955C1160.51,950.811 1163.62,946.299 1167,942C1170.67,937.333 1175.02,932.013 1179,927C1184.17,920.5 1193,909.667 1198,903C1201.88,897.822 1205.22,892.255 1209,887C1212.83,881.667 1217.23,876.498 1221,871C1225,865.167 1229.33,857.5 1233,852C1236.18,847.228 1240,842.5 1243,838C1245.82,833.766 1251,825 1251,825Z" style="fill:rgb(255,133,10);"/>
                </g>
                <g transform="matrix(0.0368912,-0.0168453,0.0197569,0.0432675,1.46099,1379.81)">
                    <ellipse cx="1060" cy="151.5" rx="101" ry="70.5" style="fill:rgb(249,245,234);"/>
                </g>
                <g transform="matrix(0.0410816,-0.0127254,0.0132288,0.042707,-6.41338,1375.82)">
                    <ellipse cx="1175" cy="327.5" rx="82" ry="64.5" style="fill:rgb(249,245,234);"/>
                </g>
                <g transform="matrix(0.0408368,0.00291392,-0.00298161,0.0417855,-1.42998,1357.06)">
                    <ellipse cx="1210" cy="485" rx="72" ry="58" style="fill:rgb(249,245,234);"/>
                </g>
                <g transform="matrix(0.0404012,0.0052527,-0.00576969,0.0443776,0.983034,1352.64)">
                    <ellipse cx="1191.5" cy="618.5" rx="60.5" ry="45.5" style="fill:rgb(249,245,234);"/>
                </g>
                <g transform="matrix(0.0354242,0.00460563,-0.00460563,0.0354242,4.60806,1358.26)">
                    <path d="M904,260C904,260 938.667,259.667 949,260C954.703,260.184 960.833,261.167 966,262C970.712,262.76 975.833,264 980,265C983.696,265.887 987.667,267 991,268C994.029,268.909 997.045,269.874 1000,271C1003.5,272.333 1008.67,274.5 1012,276C1014.72,277.223 1017.5,278.667 1020,280C1022.37,281.265 1024.72,282.576 1027,284C1029.67,285.667 1033.08,287.889 1036,290C1039,292.167 1042.11,294.527 1045,297C1048.5,300 1053.67,304.5 1057,308C1059.94,311.091 1063.3,314.696 1066,318C1069,321.667 1072.23,325.84 1075,330C1078.33,335 1083,342.667 1086,348C1088.56,352.547 1091,357.667 1093,362C1094.82,365.934 1096.44,369.956 1098,374C1099.67,378.333 1101.67,383.833 1103,388C1104.16,391.62 1105.01,395.33 1106,399C1107.17,403.333 1108.89,408.945 1110,414C1111.17,419.333 1112.08,425.32 1113,431C1114,437.167 1115.18,444.309 1116,451C1116.88,458.167 1117.94,466.303 1118.28,474C1118.51,479.215 1118.49,485.3 1118.44,491.435C1118.4,495.691 1118.34,499.972 1118.34,504C1118.34,513.667 1118.67,524.167 1118.28,533C1117.92,541.028 1116,557 1116,557L1113,581C1113,581 1111.17,595.167 1110,602C1108.86,608.702 1107.17,616.5 1106,622C1105.08,626.35 1104,630.667 1103,635C1102,639.333 1101,644 1100,648C1099.08,651.687 1097.83,655.833 1097,659C1096.3,661.658 1095.74,664.352 1095,667C1094.17,670 1092.83,674.333 1092,677C1091.37,679.012 1090.63,680.99 1090,683C1089,686.167 1087.17,692.667 1086,696C1085.16,698.396 1083.88,700.618 1083,703C1081.83,706.167 1080.33,711.5 1079,715C1077.83,718.068 1076.33,721 1075,724C1073.67,727 1070,734 1070,734C1070,734 1070.76,726.99 1071,724C1071.33,719.833 1072.44,713.345 1073,708C1073.67,701.667 1074.33,693.167 1075,686C1075.65,678.999 1076.67,671.333 1077,665C1077.3,659.341 1077,653.667 1077,648C1077,640.833 1077.24,630.663 1077,622C1076.67,610.167 1076,591.5 1075,577C1074.03,562.97 1072.17,545.333 1071,535C1070.24,528.301 1069.13,521.646 1068,515C1066.5,506.167 1063.83,491 1062,482C1060.56,474.949 1058.33,466.5 1057,461C1056.03,456.993 1055.1,452.975 1054,449C1052.67,444.167 1050.5,436.667 1049,432C1047.81,428.286 1046.37,424.654 1045,421C1043.5,416.993 1041.65,412.31 1040,407.956C1038.17,403.122 1036.17,397.159 1034,392C1031.86,386.913 1029.17,381.5 1027,377C1025.06,372.971 1023,368.667 1021,365C1019.14,361.587 1017.02,358.321 1015,355C1012.67,351.167 1009.83,346.167 1007,342C1004.19,337.865 1000.33,333.167 998,330C996.299,327.692 994.76,325.263 993,323C990.667,320 987.187,315.506 984,312C980.667,308.333 976.833,304.333 973,301C969.227,297.719 965.833,294.833 962,292C958.354,289.305 953.167,286.167 950,284C947.405,282.224 944.721,280.576 942,279C938.833,277.167 934.5,274.833 931,273C927.699,271.271 924.365,269.602 921,268C917.5,266.333 913.167,264.333 910,263C907.375,261.895 902,260 902,260L904,260Z" style="fill:rgb(249,245,234);"/>
                </g>
                <g transform="matrix(0.0354242,0.00460563,-0.00460563,0.0354242,4.60806,1358.26)">
                    <path d="M783,282L770,284L760,286L742,290L728,294L720,296L713,298L707,300L702,302L696,304L688,307L678.358,310.476L671.304,313.696L664.213,316.728L658.13,319.857L652.261,323.026L645.059,326.903L639.085,329.851L634.136,332.808L629.25,335.832L626.147,337.868L622.306,340.832L616.234,344.798L610.333,348.932L604.459,353.848L598.309,358.585L593.195,362.696L586.636,369.036L579.898,375.908L573.937,381.943L568.336,387.995L561.088,395.908L555.156,403.847L549.166,411.736L544.148,418.919L539.293,426.891L535.387,432.832L531.383,439.895L527.131,446.985C527.131,446.985 521.772,457.661 519.15,463.027C516.484,468.482 513.484,474.765 511.138,479.718C509.088,484.046 506.965,488.343 505.076,492.744C502.409,498.957 497.792,510.275 495.137,516.995C493.035,522.312 491.155,527.713 489.14,533.063C486.983,538.791 484.474,545.251 482.191,551.364C479.889,557.53 477.634,563.968 475.325,570.059C473.06,576.034 470.526,582.239 468.338,587.91C466.262,593.291 464.318,598.722 462.197,604.084C460.022,609.584 457.778,615.381 455.285,620.907C450.943,630.534 440.215,653.311 436.142,661.847C434.482,665.324 432.643,668.712 430.846,672.12C428.877,675.856 426.583,680.265 424.326,684.259C422.069,688.251 419.645,692.24 417.3,696.085C414.998,699.86 412.26,704.171 410.257,707.327C408.621,709.905 407.032,712.516 405.282,715.019C403.447,717.646 401.081,720.592 399.243,723.09C397.557,725.381 395.98,727.751 394.254,730.011C392.108,732.819 388.514,737.254 386.37,739.937C384.719,742.003 383.08,744.086 381.388,746.109C379.699,748.129 377.994,750.137 376.215,752.078C373.047,755.533 367.017,762.198 362.382,766.84C357.871,771.357 352.054,776.559 348.402,779.93C345.789,782.343 343.145,784.722 340.472,787.068C337.793,789.42 334.99,791.879 332.327,794.039C329.775,796.11 326.479,798.537 324.495,800.029C323.154,801.037 321.782,802.005 320.425,802.992C319.059,803.985 317.645,804.998 316.299,805.989C314.977,806.963 313.692,807.989 312.351,808.937C310.71,810.096 308.426,811.625 306.449,812.948C304.456,814.282 302.407,815.606 300.389,816.94C298.368,818.276 296.364,819.65 294.324,820.964C291.999,822.461 289.072,824.277 286.439,825.922C283.785,827.58 280.711,829.548 278.4,830.914C276.49,832.042 274.51,833.045 272.568,834.116C270.077,835.489 266.467,837.517 263.451,839.153C260.472,840.77 257.482,842.369 254.475,843.933C251.303,845.583 247.587,847.537 244.422,849.053C241.483,850.46 238.456,851.678 235.489,853.026C231.701,854.748 221.98,858.654 221.695,859.38C221.41,860.106 229.771,858.157 233.779,857.381C238.003,856.562 242.625,855.466 247.039,854.47C251.984,853.354 258.453,852.005 263.451,850.684C268.025,849.474 272.487,847.873 277.028,846.542C282.173,845.034 288.983,843.451 294.324,841.636C299.347,839.929 304.195,837.741 309.071,835.65C314.099,833.493 319.386,831.083 324.495,828.694C329.729,826.246 335.232,823.71 340.472,820.964C345.893,818.123 351.979,814.644 357.022,811.649C361.668,808.889 366.938,805.514 370.729,802.992C373.815,800.938 376.835,798.558 379.768,796.513C382.594,794.543 385.508,792.699 388.328,790.721C391.169,788.728 394.008,786.64 396.815,784.556C399.641,782.458 402.804,780.046 405.282,778.134C407.435,776.474 409.682,774.921 411.685,773.084C414.541,770.465 419.441,765.468 422.419,762.419C424.851,759.928 427.289,757.436 429.551,754.79C432.137,751.765 435.679,747.146 437.935,744.27C439.68,742.045 441.428,739.822 443.086,737.532C445.116,734.727 447.851,730.857 450.116,727.44C452.444,723.927 454.771,720.134 457.056,716.454C459.535,712.465 462.534,707.627 464.986,703.502C467.305,699.603 469.485,695.623 471.771,691.704C474.108,687.699 476.965,682.993 479.009,679.467C480.722,676.514 482.417,673.551 484.041,670.548C486.374,666.233 490.191,658.918 493.007,653.576C495.655,648.552 498.279,643.515 500.937,638.497C503.607,633.457 506.403,628.429 509.025,623.337C511.845,617.858 514.849,611.495 517.862,605.626C521.588,598.367 528.015,585.996 531.383,579.784C533.487,575.904 535.949,572.224 538.072,568.354C541.676,561.787 548.855,547.893 553.007,540.38C556.2,534.604 559.976,528.41 562.988,523.281C565.669,518.713 568.551,513.878 571.075,509.603C573.429,505.614 575.706,501.578 578.127,497.629C581.814,491.615 588.807,480.386 593.195,473.519C596.87,467.769 601.035,461.725 604.459,456.425C607.604,451.557 610.763,446.148 613.738,441.721C616.457,437.672 619.721,433.358 622.306,429.86C624.578,426.786 626.972,423.804 629.25,420.735C632.047,416.967 636.45,410.837 639.085,407.25C641.061,404.561 643.249,401.537 645.059,399.216C646.629,397.203 648.297,395.19 649.947,393.32C651.561,391.492 653.337,389.812 654.963,387.995C656.659,386.098 658.454,384.002 660.124,381.943C661.999,379.63 664.007,376.581 666.211,374.12C669.698,370.227 676.898,362.783 681.045,358.585C684.309,355.281 687.709,352.113 691.093,348.932C694.767,345.479 699.438,341.266 703.089,337.868C706.409,334.778 710.523,330.778 713,328.544C714.589,327.111 716.283,325.8 717.954,324.463C720.087,322.755 723.47,320.093 725.8,318.299C727.825,316.739 730.114,314.999 731.935,313.696C733.499,312.576 735.123,311.542 736.725,310.476C738.403,309.36 740.282,308.218 742,307C743.992,305.587 746.462,303.5 748.676,302C750.808,300.556 753.144,299.333 755.285,298C757.382,296.694 759.399,295.26 761.524,294C763.774,292.667 766.342,291.295 768.782,290C771.294,288.667 774.224,287.333 776.594,286C778.788,284.766 783,282 783,282Z" style="fill:rgb(249,245,234);"/>
                </g>
            </g>
        </g>
    </g>
</svg>
